<svg width="19" height="18" viewBox="0 0 19 18" fill="none" xmlns="http://www.w3.org/2000/svg">
<path d="M12.7581 8.59375L17.6443 3.70752C18.2439 3.10791 18.2439 2.13574 17.6443 1.53564L16.5583 0.449707C15.9587 -0.149902 14.9866 -0.149902 14.3865 0.449707L9.50024 5.33594L4.61401 0.449707C4.0144 -0.149902 3.04224 -0.149902 2.44214 0.449707L1.3562 1.53564C0.756592 2.13525 0.756592 3.10742 1.3562 3.70752L6.24243 8.59375L1.3562 13.48C0.756592 14.0796 0.756592 15.0518 1.3562 15.6519L2.44214 16.7378C3.04175 17.3374 4.0144 17.3374 4.61401 16.7378L9.50024 11.8516L14.3865 16.7378C14.9861 17.3374 15.9587 17.3374 16.5583 16.7378L17.6443 15.6519C18.2439 15.0522 18.2439 14.0801 17.6443 13.48L12.7581 8.59375Z" fill="#ECBA07"/>
</svg>
