<svg width="23" height="26" viewBox="0 0 23 26" fill="none" xmlns="http://www.w3.org/2000/svg">
<path d="M2.12524 23.0667C2.12524 23.6883 2.37217 24.2844 2.81171 24.7239C3.25125 25.1635 3.84739 25.4104 4.46899 25.4104H18.5315C19.1531 25.4104 19.7492 25.1635 20.1888 24.7239C20.6283 24.2844 20.8752 23.6883 20.8752 23.0667V6.66041H2.12524V23.0667ZM15.4065 10.5667C15.4065 10.3595 15.4888 10.1607 15.6353 10.0142C15.7818 9.86772 15.9805 9.78541 16.1877 9.78541C16.3949 9.78541 16.5937 9.86772 16.7402 10.0142C16.8867 10.1607 16.969 10.3595 16.969 10.5667V21.5042C16.969 21.7114 16.8867 21.9101 16.7402 22.0566C16.5937 22.2031 16.3949 22.2854 16.1877 22.2854C15.9805 22.2854 15.7818 22.2031 15.6353 22.0566C15.4888 21.9101 15.4065 21.7114 15.4065 21.5042V10.5667ZM10.719 10.5667C10.719 10.3595 10.8013 10.1607 10.9478 10.0142C11.0943 9.86772 11.293 9.78541 11.5002 9.78541C11.7074 9.78541 11.9062 9.86772 12.0527 10.0142C12.1992 10.1607 12.2815 10.3595 12.2815 10.5667V21.5042C12.2815 21.7114 12.1992 21.9101 12.0527 22.0566C11.9062 22.2031 11.7074 22.2854 11.5002 22.2854C11.293 22.2854 11.0943 22.2031 10.9478 22.0566C10.8013 21.9101 10.719 21.7114 10.719 21.5042V10.5667ZM6.03149 10.5667C6.03149 10.3595 6.1138 10.1607 6.26032 10.0142C6.40683 9.86772 6.60554 9.78541 6.81274 9.78541C7.01994 9.78541 7.21866 9.86772 7.36517 10.0142C7.51168 10.1607 7.59399 10.3595 7.59399 10.5667V21.5042C7.59399 21.7114 7.51168 21.9101 7.36517 22.0566C7.21866 22.2031 7.01994 22.2854 6.81274 22.2854C6.60554 22.2854 6.40683 22.2031 6.26032 22.0566C6.1138 21.9101 6.03149 21.7114 6.03149 21.5042V10.5667ZM21.6565 1.97291H15.7971L15.3381 1.05982C15.2409 0.864615 15.0911 0.70041 14.9057 0.585682C14.7202 0.470953 14.5064 0.410253 14.2883 0.410409H8.70728C8.48969 0.409572 8.27626 0.470047 8.09146 0.584903C7.90665 0.699759 7.75794 0.864352 7.66235 1.05982L7.20337 1.97291H1.34399C1.13679 1.97291 0.93808 2.05522 0.791567 2.20173C0.645054 2.34824 0.562744 2.54696 0.562744 2.75416L0.562744 4.31666C0.562744 4.52386 0.645054 4.72257 0.791567 4.86909C0.93808 5.0156 1.13679 5.09791 1.34399 5.09791H21.6565C21.8637 5.09791 22.0624 5.0156 22.2089 4.86909C22.3554 4.72257 22.4377 4.52386 22.4377 4.31666V2.75416C22.4377 2.54696 22.3554 2.34824 22.2089 2.20173C22.0624 2.05522 21.8637 1.97291 21.6565 1.97291Z" fill="#ECBA07"/>
</svg>
