<svg width="23" height="23" viewBox="0 0 23 23" fill="none" xmlns="http://www.w3.org/2000/svg">
<path d="M13.8039 9.03732V2.12715C13.8039 1.27917 13.1165 0.591745 12.2682 0.5914L10.7324 0.591401C9.88447 0.591401 9.19705 1.27883 9.1967 2.12715L9.1967 9.03732L2.28653 9.03732C1.43855 9.03732 0.751125 9.72475 0.750779 10.5731L0.750779 12.1088C0.750779 12.9568 1.43821 13.6442 2.28653 13.6446L9.1967 13.6446L9.1967 20.5547C9.1967 21.4027 9.88413 22.0901 10.7324 22.0905L12.2682 22.0905C13.1162 22.0905 13.8039 21.4027 13.8039 20.5547L13.8039 13.6446H20.7141C21.5621 13.6446 22.2499 12.9568 22.2499 12.1088V10.5731C22.2499 9.72509 21.5624 9.03767 20.7141 9.03732H13.8039Z" fill="black"/>
</svg>
