<svg width="45" height="46" viewBox="0 0 45 46" fill="none" xmlns="http://www.w3.org/2000/svg">
<rect x="0.5" y="1" width="44" height="44" rx="22" fill="black" fill-opacity="0.15"/>
<rect x="0.5" y="1" width="44" height="44" rx="22" stroke="#ECBA07"/>
<path d="M22.5 23C25.9521 23 28.75 20.2021 28.75 16.75C28.75 13.2979 25.9521 10.5 22.5 10.5C19.0479 10.5 16.25 13.2979 16.25 16.75C16.25 20.2021 19.0479 23 22.5 23ZM26.875 24.5625H26.0596C24.9756 25.0605 23.7695 25.3438 22.5 25.3438C21.2305 25.3438 20.0293 25.0605 18.9404 24.5625H18.125C14.502 24.5625 11.5625 27.502 11.5625 31.125V33.1562C11.5625 34.4502 12.6123 35.5 13.9062 35.5H31.0938C32.3877 35.5 33.4375 34.4502 33.4375 33.1562V31.125C33.4375 27.502 30.498 24.5625 26.875 24.5625Z" fill="#ECBA07"/>
</svg>
